<svg version="1.1" id="Layer_1" xmlns="http://www.w3.org/2000/svg" xmlns:xlink="http://www.w3.org/1999/xlink" x="0px" y="0px"
	 width="100%" viewBox="0 0 512 512" enable-background="new 0 0 512 512" xml:space="preserve">
<path fill="#FFF" opacity="0.000000" stroke="none"
	d="
M267.000000,513.000000 
	C178.021591,513.000000 89.543182,513.000000 1.032386,513.000000 
	C1.032386,342.396576 1.032386,171.793121 1.032386,1.094840 
	C171.561768,1.094840 342.123596,1.094840 512.842712,1.094840 
	C512.842712,171.666550 512.842712,342.333252 512.842712,513.000000 
	C431.126434,513.000000 349.313202,513.000000 267.000000,513.000000 
M270.933228,423.130981 
	C287.298615,423.074097 303.663971,423.017212 320.939728,423.188446 
	C334.945801,423.169159 348.951874,423.149872 363.696716,423.498718 
	C380.327881,423.616882 396.959747,423.881958 413.590027,423.804260 
	C425.715759,423.747589 437.839417,423.239136 450.897797,423.008728 
	C457.726166,423.008728 464.554535,423.008728 471.074036,423.008728 
	C464.371185,420.986542 457.242279,420.435577 449.137451,421.782715 
	C435.491241,421.364716 421.847321,420.832123 408.198181,420.560394 
	C394.066803,420.279114 379.930420,420.250946 365.846100,419.161926 
	C365.869141,390.224060 365.931122,361.286194 365.904480,332.348358 
	C365.876495,301.917450 365.763672,271.486633 365.789612,240.106232 
	C365.860565,231.886673 365.931488,223.667114 366.698578,215.722763 
	C373.846466,219.296951 380.994354,222.871124 389.095001,226.921707 
	C389.095001,223.072800 389.082123,220.761032 389.097168,218.449417 
	C389.181458,205.512833 389.169769,205.539352 377.645233,199.471375 
	C339.501556,179.387695 301.347839,159.322708 263.270294,139.114288 
	C260.088776,137.425797 257.671295,137.498413 254.548889,139.154251 
	C238.669998,147.575012 222.621185,155.674973 206.726624,164.066711 
	C181.559036,177.354279 156.456177,190.764709 131.372849,204.210709 
	C130.081390,204.902985 128.372040,206.376007 128.316681,207.554123 
	C128.015884,213.954895 128.173813,220.377228 128.173813,227.931839 
	C137.285965,223.200989 145.066971,219.161224 152.995071,216.032196 
	C153.105362,227.369568 153.215652,238.706955 153.334473,250.976578 
	C153.278748,307.458832 153.223007,363.941071 152.207764,420.474091 
	C132.457779,420.526764 112.707726,420.563660 92.957909,420.653412 
	C90.657196,420.663849 88.357826,420.967133 85.216721,420.983398 
	C78.689850,420.983398 72.162971,420.983398 65.636101,420.983398 
	C65.688080,421.861664 65.740059,422.739960 65.792030,423.618225 
	C72.519814,423.054016 79.247589,422.489807 86.442703,422.523743 
	C90.035431,422.788361 93.628738,423.287537 97.220772,423.278595 
	C116.813362,423.229675 136.405640,423.055725 156.927200,423.067291 
	C169.617325,423.050323 182.307465,423.033386 195.921692,423.188660 
	C217.945862,423.134705 239.970032,423.080780 262.692749,423.249695 
	C265.129181,423.172058 267.565613,423.094421 270.933228,423.130981 
M84.782936,88.119926 
	C81.439224,89.100929 77.965218,89.772270 74.773750,91.115097 
	C58.644722,97.901512 49.587910,115.076950 53.188221,132.334122 
	C55.739403,144.562592 67.025772,158.678314 87.777473,158.059219 
	C102.085770,157.632355 116.420998,158.180069 130.739334,157.966599 
	C134.303574,157.913467 136.509201,159.028687 138.722397,161.702423 
	C143.281448,167.210144 148.237366,172.389389 153.029984,177.703781 
	C153.557785,177.467682 154.085587,177.231583 154.613388,176.995499 
	C154.613388,171.685211 154.733643,166.371246 154.570648,161.065964 
	C154.463943,157.592346 155.996567,155.797119 159.097778,154.339874 
	C170.730453,148.873764 177.257584,139.630692 178.564102,126.778008 
	C180.536942,107.370415 166.076645,88.423584 148.078232,88.009041 
	C127.281830,87.530037 106.463585,87.999054 84.782936,88.119926 
M338.231873,137.167892 
	C342.044312,145.377625 348.135712,151.340530 356.375549,154.956512 
	C360.097198,156.589722 361.649078,158.986359 361.506714,163.054993 
	C361.372070,166.901016 361.879669,170.769501 362.152252,175.441818 
	C367.604980,170.562958 372.446045,166.510025 376.946259,162.108551 
	C380.041382,159.081345 383.456818,157.891403 387.720306,157.933365 
	C400.217560,158.056366 412.721008,158.124237 425.214722,157.862915 
	C437.500977,157.605927 448.176361,153.379623 455.327484,142.917801 
	C470.505066,120.713577 455.356201,89.582581 428.191650,88.217438 
	C408.247742,87.215164 388.177826,87.293121 368.226532,88.225891 
	C343.424835,89.385445 329.006409,113.094963 338.231873,137.167892 
M52.497070,357.621643 
	C53.050407,357.926147 53.730465,358.609528 54.136520,358.473724 
	C56.782806,357.588501 59.293587,356.118805 61.993366,355.613922 
	C66.309761,354.806702 69.566986,353.415131 71.640625,348.983337 
	C72.742889,346.627594 75.713409,344.645935 78.287994,343.636719 
	C80.366821,342.821808 83.135040,343.955902 85.560333,343.761810 
	C86.968842,343.649078 88.304146,342.621643 89.672394,342.005829 
	C88.727333,341.046906 87.954353,339.678406 86.808647,339.197021 
	C80.448227,336.524689 74.489265,338.604065 70.260170,344.165619 
	C68.115997,346.985352 65.483070,350.984131 62.648941,351.372986 
	C58.153313,351.989777 55.322960,353.829834 52.497070,357.621643 
M59.560081,423.146606 
	C60.891006,423.038422 62.221935,422.930206 63.552860,422.821991 
	C63.535107,422.406189 63.517349,421.990387 63.499596,421.574585 
	C59.314930,421.574585 55.130260,421.574585 50.945595,421.574585 
	C50.916599,421.954712 50.887604,422.334839 50.858608,422.714935 
	C53.492664,422.839905 56.126724,422.964844 59.560081,423.146606 
z"/>
<path fill="#C15335" opacity="1.000000" stroke="none" 
	d="
M152.847992,215.121460 
	C145.066971,219.161224 137.285965,223.200989 128.173813,227.931839 
	C128.173813,220.377228 128.015884,213.954895 128.316681,207.554123 
	C128.372040,206.376007 130.081390,204.902985 131.372849,204.210709 
	C156.456177,190.764709 181.559036,177.354279 206.726624,164.066711 
	C222.621185,155.674973 238.669998,147.575012 254.548889,139.154251 
	C257.671295,137.498413 260.088776,137.425797 263.270294,139.114288 
	C301.347839,159.322708 339.501556,179.387695 377.645233,199.471375 
	C389.169769,205.539352 389.181458,205.512833 389.097168,218.449417 
	C389.082123,220.761032 389.095001,223.072800 389.095001,226.921707 
	C380.994354,222.871124 373.846466,219.296951 366.151031,215.353058 
	C361.741394,212.977448 357.879303,210.971558 353.771149,208.720169 
	C341.061646,202.180588 328.537018,196.004120 316.149384,189.564209 
	C298.593323,180.437363 281.112946,171.163589 263.663818,161.833633 
	C260.608673,160.200073 258.002167,159.876724 254.797791,161.584244 
	C230.581970,174.488007 206.257721,187.188339 182.047287,200.102097 
	C176.521149,203.049728 171.306396,206.581146 165.550385,209.921539 
	C161.050949,211.706604 156.949463,213.414032 152.847992,215.121460 
z"/>
<path fill="#1A4E58" opacity="1.000000" stroke="none"
	d="
M85.218887,88.088188 
	C106.463585,87.999054 127.281830,87.530037 148.078232,88.009041 
	C166.076645,88.423584 180.536942,107.370415 178.564102,126.778008 
	C177.257584,139.630692 170.730453,148.873764 159.097778,154.339874 
	C155.996567,155.797119 154.463943,157.592346 154.570648,161.065964 
	C154.733643,166.371246 154.613388,171.685211 154.613388,176.995499 
	C154.085587,177.231583 153.557785,177.467682 153.029984,177.703781 
	C148.237366,172.389389 143.281448,167.210144 138.722397,161.702423 
	C136.509201,159.028687 134.303574,157.913467 130.739334,157.966599 
	C116.420998,158.180069 102.085770,157.632355 87.777473,158.059219 
	C67.025772,158.678314 55.739403,144.562592 53.188221,132.334122 
	C49.587910,115.076950 58.644722,97.901512 74.773750,91.115097 
	C77.965218,89.772270 81.439224,89.100929 85.218887,88.088188 
M97.660149,101.620995 
	C99.638161,101.576866 101.631310,101.654739 103.584732,101.412437 
	C104.152504,101.341995 104.811172,100.423973 105.031425,99.762398 
	C105.151497,99.401772 104.446571,98.322548 104.102219,98.317268 
	C98.153793,98.225990 92.203583,98.251564 86.253769,98.251564 
	C86.163536,98.865280 86.073311,99.478989 85.983086,100.092705 
	C87.467140,100.611595 88.952850,101.125824 90.434753,101.650818 
	C91.675819,102.090492 92.912445,102.542747 94.074524,103.819252 
	C94.419968,107.521446 94.765411,111.223648 95.191658,115.791885 
	C80.731819,108.559563 67.729507,118.742393 68.467720,130.746750 
	C68.958130,138.721481 74.784698,145.361893 82.488335,146.791595 
	C89.938667,148.174286 97.386330,144.106537 101.076019,137.077972 
	C101.819145,135.662369 103.826851,134.762222 105.444061,134.082458 
	C105.757439,133.950729 107.494331,135.864761 107.673233,136.979752 
	C108.580009,142.631149 109.151985,143.025970 115.304504,140.871078 
	C113.266975,138.507584 111.309891,136.237427 108.228844,132.663498 
	C116.582062,125.054443 124.629402,117.724014 132.676743,110.393593 
	C133.071014,110.578842 133.465271,110.764099 133.859528,110.949356 
	C133.138199,112.507256 132.554993,114.149338 131.667343,115.605873 
	C129.700485,118.833260 126.878342,121.720192 125.657867,125.187035 
	C122.282379,134.775345 128.402939,144.723114 138.426422,146.822296 
	C147.751877,148.775284 157.758591,141.764420 158.990494,132.414780 
	C160.314697,122.364380 152.879532,113.378876 142.862625,112.956131 
	C141.235123,112.887444 139.602219,112.946495 137.375473,112.946495 
	C136.426422,108.368286 135.513229,103.962990 134.707535,100.076347 
	C138.871765,98.435432 141.957123,97.219650 145.042480,96.003868 
	C144.851303,95.290993 144.660126,94.578117 144.468964,93.865242 
	C138.433365,94.366859 132.397781,94.868484 126.362190,95.370102 
	C126.134209,95.829132 125.906227,96.288162 125.678246,96.747200 
	C127.282379,97.875206 128.886520,99.003220 130.892471,100.413780 
	C130.991882,101.576416 131.141373,103.324486 131.362000,105.904533 
	C121.817696,105.904533 112.690437,105.708008 103.579254,106.004898 
	C100.116714,106.117722 97.844002,105.390007 97.660149,101.620995 
z"/>
<path fill="#194E57" opacity="1.000000" stroke="none" 
	d="
M338.095764,136.810760 
	C329.006409,113.094963 343.424835,89.385445 368.226532,88.225891 
	C388.177826,87.293121 408.247742,87.215164 428.191650,88.217438 
	C455.356201,89.582581 470.505066,120.713577 455.327484,142.917801 
	C448.176361,153.379623 437.500977,157.605927 425.214722,157.862915 
	C412.721008,158.124237 400.217560,158.056366 387.720306,157.933365 
	C383.456818,157.891403 380.041382,159.081345 376.946259,162.108551 
	C372.446045,166.510025 367.604980,170.562958 362.152252,175.441818 
	C361.879669,170.769501 361.372070,166.901016 361.506714,163.054993 
	C361.649078,158.986359 360.097198,156.589722 356.375549,154.956512 
	C348.135712,151.340530 342.044312,145.377625 338.095764,136.810760 
M357.029114,136.079193 
	C360.237671,143.063583 365.445099,147.177368 373.361633,146.975784 
	C382.973999,146.731003 387.762726,140.593903 390.425873,132.020828 
	C392.396759,132.241150 394.097015,132.431198 395.925232,132.635559 
	C394.944458,135.568497 394.165222,137.898697 392.834808,141.877151 
	C395.108185,140.799011 396.788300,140.538757 397.438660,139.580017 
	C398.720245,137.690704 399.169891,135.242065 400.429199,133.331635 
	C403.480743,128.702209 406.799316,124.248817 410.010284,119.724487 
	C410.432861,120.015877 410.855469,120.307266 411.278046,120.598656 
	C410.759949,122.305649 410.201630,124.001633 409.730621,125.721527 
	C407.664734,133.265198 410.276794,140.056961 416.852203,144.313232 
	C422.534546,147.991425 430.656250,147.613144 436.093262,143.417114 
	C442.156647,138.737610 444.378845,131.402740 441.899353,124.252609 
	C439.559845,117.505966 432.915985,112.438477 425.806976,113.233459 
	C420.608521,113.814789 419.362244,110.911636 417.592957,106.638031 
	C421.283630,106.292030 424.527832,105.987885 429.006409,105.568024 
	C424.705231,100.906433 420.812469,102.497345 417.149506,103.633553 
	C415.007874,97.044556 410.393555,95.255501 403.520538,98.955002 
	C405.581177,99.671051 407.038361,100.706657 408.329926,100.530190 
	C412.777374,99.922478 413.746796,102.128265 413.463806,106.229843 
	C406.327332,106.229843 399.351135,106.071083 392.387177,106.294052 
	C388.673462,106.412949 387.711365,104.846962 388.125397,101.790375 
	C390.030212,100.900742 391.654999,100.141899 393.279816,99.383049 
	C393.194061,98.796280 393.108337,98.209518 393.022583,97.622749 
	C388.877106,97.354790 384.733551,96.948174 380.585175,96.891113 
	C379.050903,96.870018 377.505310,97.671005 375.964874,98.097076 
	C377.338318,99.104233 378.660187,100.193848 380.100098,101.094780 
	C381.472931,101.953735 383.721649,102.259727 384.274902,103.428902 
	C386.233002,107.566765 386.164398,111.720650 382.422577,115.287354 
	C374.812225,111.461060 367.441895,111.512199 361.067535,117.432365 
	C355.851654,122.276596 354.694946,128.504044 357.029114,136.079193 
z"/>
<path fill="#1A8268" opacity="1.000000" stroke="none" 
	d="
M365.687897,241.055756 
	C365.763672,271.486633 365.876495,301.917450 365.904480,332.348358 
	C365.931122,361.286194 365.869141,390.224060 365.539429,419.769775 
	C364.448669,420.644623 363.664581,420.911591 362.473755,421.189240 
	C356.270111,421.196503 350.473267,421.193085 344.761353,420.707245 
	C344.856964,372.809692 344.867645,325.394562 344.899902,277.512573 
	C344.921448,260.259583 344.921448,243.473419 344.921448,225.983109 
	C352.500488,231.484116 359.094208,236.269943 365.687897,241.055756 
z"/>
<path fill="#1B8269" opacity="1.000000" stroke="none" 
	d="
M153.167267,420.423340 
	C153.223007,363.941071 153.278748,307.458832 153.655899,250.414124 
	C159.119720,246.298203 164.306503,242.806458 169.380234,239.157501 
	C171.132141,237.897568 172.667999,235.947037 173.048019,240.442886 
	C173.384201,257.254120 173.738312,273.611298 174.077728,290.413910 
	C174.346420,295.998535 174.845016,301.136536 174.874939,306.277222 
	C174.988068,325.719910 174.951172,345.163452 174.966537,364.606689 
	C174.980103,381.765381 175.044510,398.924530 174.912918,416.082123 
	C174.899719,417.802704 173.683899,419.514069 172.606888,421.210022 
	C168.490372,421.434967 164.793198,421.679565 160.935852,421.769318 
	C160.541763,421.423615 160.276932,421.297882 159.588120,421.189941 
	C158.141769,421.113037 157.088531,421.083344 155.737427,421.025391 
	C154.682129,420.805878 153.924713,420.614624 153.167267,420.423340 
z"/>
<path fill="#164D56" opacity="1.000000" stroke="none" 
	d="
M173.065948,239.988861 
	C172.667999,235.947037 171.132141,237.897568 169.380234,239.157501 
	C164.306503,242.806458 159.119720,246.298203 153.651627,249.947998 
	C153.215652,238.706955 153.105362,227.369568 152.921524,215.576813 
	C156.949463,213.414032 161.050949,211.706604 166.023193,209.992798 
	C181.275497,209.974716 195.657059,209.963028 210.497910,210.033829 
	C223.232376,210.121841 235.507690,210.165237 247.782730,210.124252 
	C267.849182,210.057251 287.915436,209.935303 308.446716,209.908417 
	C317.024933,209.987000 325.141052,210.129028 333.250610,209.959106 
	C340.176697,209.813965 347.095306,209.310577 354.017212,208.965668 
	C357.879303,210.971558 361.741394,212.977448 365.802979,215.215454 
	C365.931488,223.667114 365.860565,231.886673 365.738770,240.580994 
	C359.094208,236.269943 352.500488,231.484116 344.921448,225.983109 
	C344.921448,243.473419 344.921448,260.259583 344.591736,277.517517 
	C343.848450,277.991150 343.434875,277.993042 343.007904,277.526978 
	C342.986542,261.393219 342.982483,245.727463 342.968750,230.061707 
	C342.962555,222.993698 342.026367,222.031143 334.863068,222.027267 
	C291.365631,222.003662 247.868149,221.968353 204.370865,222.042755 
	C200.071396,222.050110 195.725677,222.493500 191.483841,223.217407 
	C181.523422,224.917236 174.148270,232.170959 173.784027,239.996796 
	C173.544662,239.994797 173.065948,239.988861 173.065948,239.988861 
z"/>
<path fill="#2C6664" opacity="1.000000" stroke="none" 
	d="
M362.880554,421.178558 
	C363.664581,420.911591 364.448669,420.644623 365.514465,420.244812 
	C379.930420,420.250946 394.066803,420.279114 408.198181,420.560394 
	C421.847321,420.832123 435.491241,421.364716 449.562836,422.103088 
	C449.980133,422.593018 449.972076,422.762573 449.963989,422.932129 
	C437.839417,423.239136 425.715759,423.747589 413.590027,423.804260 
	C396.959747,423.881958 380.327881,423.616882 363.342499,422.987793 
	C362.952362,422.044098 362.916443,421.611328 362.880554,421.178558 
z"/>
<path fill="#0E5856" opacity="1.000000" stroke="none" 
	d="
M152.687531,420.448730 
	C153.924713,420.614624 154.682129,420.805878 155.721069,421.336517 
	C156.001038,422.092163 155.999527,422.508484 155.998016,422.924774 
	C136.405640,423.055725 116.813362,423.229675 97.220772,423.278595 
	C93.628738,423.287537 90.035431,422.788361 86.248367,422.096466 
	C86.085701,421.491241 86.086967,421.313080 86.057838,421.134705 
	C88.357826,420.967133 90.657196,420.663849 92.957909,420.653412 
	C112.707726,420.563660 132.457779,420.526764 152.687531,420.448730 
z"/>

<path fill="#07474E" opacity="1.000000" stroke="none" 
	d="
M261.994202,423.026855 
	C239.970032,423.080780 217.945862,423.134705 195.454926,422.857117 
	C194.988174,422.525604 194.979095,422.034790 195.332718,421.919220 
	C195.923096,421.730377 196.159836,421.657135 196.838623,421.647095 
	C218.854996,421.776642 240.429276,421.842957 262.012817,422.188751 
	C262.012756,422.654419 262.003479,422.840637 261.994202,423.026855 
z"/>
<path fill="#1B8269" opacity="1.000000" stroke="none" 
	d="
M85.637283,421.059052 
	C86.086967,421.313080 86.085701,421.491241 86.014709,421.797394 
	C79.247589,422.489807 72.519814,423.054016 65.792030,423.618225 
	C65.740059,422.739960 65.688080,421.861664 65.636101,420.983398 
	C72.162971,420.983398 78.689850,420.983398 85.637283,421.059052 
z"/>
<path fill="#173547" opacity="1.000000" stroke="none" 
	d="
M362.473755,421.189240 
	C362.916443,421.611328 362.952362,422.044098 362.973114,422.803711 
	C348.951874,423.149872 334.945801,423.169159 320.460052,422.891327 
	C319.980377,422.594208 319.925415,422.229004 320.398438,422.163757 
	C328.341125,421.767365 335.810730,421.436218 343.514526,421.126282 
	C344.058228,421.155579 344.367462,421.169617 344.676422,421.189636 
	C350.473267,421.193085 356.270111,421.196503 362.473755,421.189240 
z"/>
<path fill="#07474E" opacity="1.000000" stroke="none" 
	d="
M319.925415,422.229004 
	C319.925415,422.229004 319.980377,422.594208 320.004883,422.777283 
	C303.663971,423.017212 287.298615,423.074097 270.458435,422.795990 
	C269.988068,422.275696 269.992523,422.090393 270.460205,421.834717 
	C286.878082,421.775299 302.832733,421.786316 319.070862,421.907898 
	C319.544678,422.088654 319.735046,422.158813 319.925415,422.229004 
z"/>
<path fill="#4B8479" opacity="1.000000" stroke="none" 
	d="
M450.430908,422.970428 
	C449.972076,422.762573 449.980133,422.593018 449.986084,422.168823 
	C457.242279,420.435577 464.371185,420.986542 471.074036,423.008728 
	C464.554535,423.008728 457.726166,423.008728 450.430908,422.970428 
z"/>
<path fill="#173547" opacity="1.000000" stroke="none" 
	d="
M194.979095,422.034790 
	C194.979095,422.034790 194.988174,422.525604 194.992889,422.770996 
	C182.307465,423.033386 169.617325,423.050323 156.462616,422.996033 
	C155.999527,422.508484 156.001038,422.092163 156.018921,421.364746 
	C157.088531,421.083344 158.141769,421.113037 159.743927,421.345795 
	C160.530640,421.737915 160.798370,421.863037 161.096008,421.924194 
	C164.793198,421.679565 168.490372,421.434967 172.903564,421.390625 
	C174.792297,421.686432 175.965012,421.781891 177.591705,421.893860 
	C183.690140,421.951813 189.334610,421.993317 194.979095,422.034790 
z"/>
<path fill="#1B8269" opacity="1.000000" stroke="none" 
	d="
M59.160431,423.118225 
	C56.126724,422.964844 53.492664,422.839905 50.858608,422.714935 
	C50.887604,422.334839 50.916599,421.954712 50.945595,421.574585 
	C55.130260,421.574585 59.314930,421.574585 63.499596,421.574585 
	C63.517349,421.990387 63.535107,422.406189 63.552860,422.821991 
	C62.221935,422.930206 60.891006,423.038422 59.160431,423.118225 
z"/>
<path fill="#2C6664" opacity="1.000000" stroke="none" 
	d="
M269.996948,421.905090 
	C269.992523,422.090393 269.988068,422.275696 269.992828,422.738892 
	C267.565613,423.094421 265.129181,423.172058 262.343475,423.138245 
	C262.003479,422.840637 262.012756,422.654419 262.447083,422.080322 
	C265.247040,421.763306 267.622009,421.834198 269.996948,421.905090 
z"/>
<path fill="#D98723" opacity="1.000000" stroke="none" 
	d="
M353.771149,208.720184 
	C347.095306,209.310577 340.176697,209.813965 333.250610,209.959106 
	C325.141052,210.129028 317.024933,209.987000 308.199677,209.682373 
	C304.449219,207.674484 301.455933,205.877701 298.364380,204.269852 
	C286.137573,197.910812 273.933838,191.501663 261.572266,185.414200 
	C259.839478,184.560898 256.968842,184.726227 255.155106,185.565613 
	C249.132324,188.352966 243.318787,191.603256 237.485535,194.786911 
	C228.310699,199.794312 219.185089,204.891907 210.038635,209.951324 
	C195.657059,209.963028 181.275497,209.974716 166.421112,209.915161 
	C171.306396,206.581146 176.521149,203.049728 182.047287,200.102097 
	C206.257721,187.188339 230.581970,174.488007 254.797791,161.584244 
	C258.002167,159.876724 260.608673,160.200073 263.663818,161.833633 
	C281.112946,171.163589 298.593323,180.437363 316.149384,189.564209 
	C328.537018,196.004120 341.061646,202.180588 353.771149,208.720184 
z"/>
<path fill="#ECF2F2" opacity="1.000000" stroke="none"
	d="
M96.826759,101.965256 
	C97.844002,105.390007 100.116714,106.117722 103.579254,106.004898 
	C112.690437,105.708008 121.817696,105.904533 131.362000,105.904533 
	C131.141373,103.324486 130.991882,101.576416 130.892471,100.413780 
	C128.886520,99.003220 127.282379,97.875206 125.678246,96.747200 
	C125.906227,96.288162 126.134209,95.829132 126.362190,95.370102 
	C132.397781,94.868484 138.433365,94.366859 144.468964,93.865242 
	C144.660126,94.578117 144.851303,95.290993 145.042480,96.003868 
	C141.957123,97.219650 138.871765,98.435432 134.707535,100.076347 
	C135.513229,103.962990 136.426422,108.368286 137.375473,112.946495 
	C139.602219,112.946495 141.235123,112.887444 142.862625,112.956131 
	C152.879532,113.378876 160.314697,122.364380 158.990494,132.414780 
	C157.758591,141.764420 147.751877,148.775284 138.426422,146.822296 
	C128.402939,144.723114 122.282379,134.775345 125.657867,125.187035 
	C126.878342,121.720192 129.700485,118.833260 131.667343,115.605873 
	C132.554993,114.149338 133.138199,112.507256 133.859528,110.949356 
	C133.465271,110.764099 133.071014,110.578842 132.676743,110.393593 
	C124.629402,117.724014 116.582062,125.054443 108.228844,132.663498 
	C111.309891,136.237427 113.266975,138.507584 115.304504,140.871078 
	C109.151985,143.025970 108.580009,142.631149 107.673233,136.979752 
	C107.494331,135.864761 105.757439,133.950729 105.444061,134.082458 
	C103.826851,134.762222 101.819145,135.662369 101.076019,137.077972 
	C97.386330,144.106537 89.938667,148.174286 82.488335,146.791595 
	C74.784698,145.361893 68.958130,138.721481 68.467720,130.746750 
	C67.729507,118.742393 80.731819,108.559563 95.191658,115.791885 
	C94.765411,111.223648 94.419968,107.521446 94.368164,103.270294 
	C95.383446,102.469315 96.105103,102.217285 96.826759,101.965256 
M138.006287,126.427773 
	C137.134995,123.880196 136.263702,121.332619 135.370178,118.720062 
	C128.821808,122.267853 127.297134,132.240723 130.654800,136.979568 
	C134.507996,142.417770 141.461121,144.592224 147.368362,141.852814 
	C153.359955,139.074280 156.541824,132.171783 154.644485,126.068581 
	C152.677216,119.740448 146.320129,116.169228 139.016174,117.648201 
	C140.374390,121.097176 141.826981,124.428673 142.961655,127.865143 
	C143.347290,129.033081 142.931503,130.465637 142.881927,131.777283 
	C141.701553,131.165771 140.355240,130.739014 139.397842,129.879211 
	C138.735718,129.284561 138.610458,128.092117 138.006287,126.427773 
M86.913437,132.308517 
	C82.749451,131.030151 84.566048,128.884720 86.094872,126.755951 
	C87.942596,124.183113 89.765228,121.592247 91.734566,118.817787 
	C82.657738,115.326149 75.502716,118.358376 73.078842,125.925308 
	C70.738785,133.230637 75.349747,141.160690 82.902985,142.821091 
	C89.454071,144.261200 96.498352,139.622177 97.687126,132.823471 
	C94.345512,132.665482 91.037849,132.509094 86.913437,132.308517 
M109.634781,109.365814 
	C107.053947,109.365814 104.473106,109.365814 101.258026,109.365814 
	C104.139343,115.907425 106.600975,121.496208 108.695229,126.250900 
	C114.727783,120.356842 120.329483,114.883736 125.969345,109.373352 
	C121.059067,109.373352 115.827766,109.373352 109.634781,109.365814 
z"/>
<path fill="#DEE7E7" opacity="1.000000" stroke="none" 
	d="
M97.243454,101.793121 
	C96.105103,102.217285 95.383446,102.469315 94.406418,102.855392 
	C92.912445,102.542747 91.675819,102.090492 90.434753,101.650818 
	C88.952850,101.125824 87.467140,100.611595 85.983086,100.092705 
	C86.073311,99.478989 86.163536,98.865280 86.253769,98.251564 
	C92.203583,98.251564 98.153793,98.225990 104.102219,98.317268 
	C104.446571,98.322548 105.151497,99.401772 105.031425,99.762398 
	C104.811172,100.423973 104.152504,101.341995 103.584732,101.412437 
	C101.631310,101.654739 99.638161,101.576866 97.243454,101.793121 
z"/>
<path fill="#EBF1F1" opacity="1.000000" stroke="none"
	d="
M356.903076,135.693268 
	C354.694946,128.504044 355.851654,122.276596 361.067535,117.432365 
	C367.441895,111.512199 374.812225,111.461060 382.422577,115.287354 
	C386.164398,111.720650 386.233002,107.566765 384.274902,103.428902 
	C383.721649,102.259727 381.472931,101.953735 380.100098,101.094780 
	C378.660187,100.193848 377.338318,99.104233 375.964874,98.097076 
	C377.505310,97.671005 379.050903,96.870018 380.585175,96.891113 
	C384.733551,96.948174 388.877106,97.354790 393.022583,97.622749 
	C393.108337,98.209518 393.194061,98.796280 393.279816,99.383049 
	C391.654999,100.141899 390.030212,100.900742 388.125397,101.790375 
	C387.711365,104.846962 388.673462,106.412949 392.387177,106.294052 
	C399.351135,106.071083 406.327332,106.229843 413.463806,106.229843 
	C413.746796,102.128265 412.777374,99.922478 408.329926,100.530190 
	C407.038361,100.706657 405.581177,99.671051 403.520538,98.955002 
	C410.393555,95.255501 415.007874,97.044556 417.149506,103.633553 
	C420.812469,102.497345 424.705231,100.906433 429.006409,105.568024 
	C424.527832,105.987885 421.283630,106.292030 417.592957,106.638031 
	C419.362244,110.911636 420.608521,113.814789 425.806976,113.233459 
	C432.915985,112.438477 439.559845,117.505966 441.899353,124.252609 
	C444.378845,131.402740 442.156647,138.737610 436.093262,143.417114 
	C430.656250,147.613144 422.534546,147.991425 416.852203,144.313232 
	C410.276794,140.056961 407.664734,133.265198 409.730621,125.721527 
	C410.201630,124.001633 410.759949,122.305649 411.278046,120.598656 
	C410.855469,120.307266 410.432861,120.015877 410.010284,119.724487 
	C406.799316,124.248817 403.480743,128.702209 400.429199,133.331635 
	C399.169891,135.242065 398.720245,137.690704 397.438660,139.580017 
	C396.788300,140.538757 395.108185,140.799011 392.834808,141.877151 
	C394.165222,137.898697 394.944458,135.568497 395.925232,132.635559 
	C394.097015,132.431198 392.396759,132.241150 390.425873,132.020828 
	C387.762726,140.593903 382.973999,146.731003 373.361633,146.975784 
	C365.445099,147.177368 360.237671,143.063583 356.903076,135.693268 
M412.883972,118.946266 
	C413.281372,118.093803 413.678772,117.241333 414.076141,116.388863 
	C413.847321,116.260246 413.618500,116.131630 413.389679,116.003014 
	C412.717316,116.830757 412.044952,117.658493 410.797974,119.150185 
	C410.803101,119.524155 410.808258,119.898125 410.813416,120.272072 
	C411.325409,119.963280 411.837402,119.654488 412.883972,118.946266 
M413.619293,126.503334 
	C412.252869,133.771042 414.450592,138.868896 420.127014,141.598709 
	C425.222137,144.048950 431.915344,142.694489 435.674255,138.452545 
	C439.685944,133.925400 440.036774,127.387627 436.543365,122.257339 
	C433.460205,117.729538 428.061707,116.009163 422.304718,118.024551 
	C423.428406,120.945740 424.659424,123.823776 425.620331,126.789322 
	C426.055878,128.133484 425.955505,129.651306 426.098206,131.090363 
	C424.710449,130.286957 422.621826,129.806412 422.073517,128.616257 
	C420.724518,125.688118 420.083832,122.433632 418.810211,118.135727 
	C416.829285,121.198975 415.355621,123.477776 413.619293,126.503334 
M378.940277,132.330048 
	C378.110168,132.348694 377.252411,132.509872 376.455841,132.355484 
	C374.928436,132.059387 373.435760,131.584122 371.928680,131.183197 
	C372.694305,129.710739 373.306610,128.129349 374.258728,126.789375 
	C376.039001,124.283821 378.016388,121.918320 379.942078,119.455772 
	C374.233307,115.734459 368.699677,115.976242 364.375977,119.747543 
	C360.007141,123.558212 358.656158,129.883652 361.076294,135.196838 
	C363.556580,140.642090 369.126587,143.745758 374.814941,142.852127 
	C380.443970,141.967834 384.536255,137.919586 385.161926,132.295166 
	C383.352173,132.295166 381.578766,132.295166 378.940277,132.330048 
M393.168304,115.405945 
	C394.676147,119.650581 396.183990,123.895210 397.925507,128.797668 
	C403.163910,122.300537 407.745941,116.617493 412.882416,110.246780 
	C404.892731,110.246780 398.180817,110.246780 390.990356,110.246780 
	C391.743317,111.999603 392.318268,113.338051 393.168304,115.405945 
M392.297119,128.139374 
	C392.755890,127.990547 393.214661,127.841736 393.673431,127.692924 
	C391.711517,122.643532 389.749634,117.594131 387.787720,112.544731 
	C386.996979,112.891830 386.206238,113.238922 385.415466,113.586021 
	C387.444519,118.419518 389.473541,123.253014 392.297119,128.139374 
M379.530945,127.631279 
	C381.617950,127.631279 383.704987,127.631279 386.535400,127.631279 
	C385.660675,125.184624 385.002167,123.342735 383.939209,120.369583 
	C381.911804,123.236328 380.619324,125.063911 379.530945,127.631279 
z"/>
<path fill="#175459" opacity="1.000000" stroke="none" 
	d="
M344.761353,420.707214 
	C344.367462,421.169617 344.058228,421.155579 343.436890,420.651794 
	C343.090454,372.769012 343.055847,325.381958 343.021240,277.994934 
	C343.434875,277.993042 343.848450,277.991150 344.570190,277.984375 
	C344.867645,325.394562 344.856964,372.809692 344.761353,420.707214 
z"/>
<path fill="#194E57" opacity="1.000000" stroke="none" 
	d="
M177.137741,421.877380 
	C175.965012,421.781891 174.792297,421.686432 173.322891,421.410339 
	C173.683899,419.514069 174.899719,417.802704 174.912918,416.082123 
	C175.044510,398.924530 174.980103,381.765381 174.966537,364.606689 
	C174.951172,345.163452 174.988068,325.719910 174.874939,306.277222 
	C174.845016,301.136536 174.346420,295.998535 174.276794,290.235168 
	C174.972672,289.077209 175.454788,288.543396 175.959000,288.476929 
	C176.311722,305.028351 176.821426,321.111206 176.933411,337.196808 
	C177.129929,365.422791 177.082809,393.650421 177.137741,421.877380 
z"/>
<path fill="#175459" opacity="1.000000" stroke="none" 
	d="
M175.936890,288.009552 
	C175.454788,288.543396 174.972672,289.077209 174.291504,289.789795 
	C173.738312,273.611298 173.384201,257.254120 173.048019,240.442886 
	C173.065948,239.988861 173.544662,239.994797 174.015717,240.337494 
	C174.970139,256.456665 175.453506,272.233093 175.936890,288.009552 
z"/>
<path fill="#194E57" opacity="1.000000" stroke="none" 
	d="
M160.935852,421.769318 
	C160.798370,421.863037 160.530640,421.737915 160.137024,421.393005 
	C160.276932,421.297882 160.541763,421.423615 160.935852,421.769318 
z"/>
<path fill="#1A8167" opacity="1.000000" stroke="none" 
	d="
M175.959000,288.476929 
	C175.453506,272.233093 174.970139,256.456665 174.255096,240.339508 
	C174.148270,232.170959 181.523422,224.917236 191.483841,223.217407 
	C195.725677,222.493500 200.071396,222.050110 204.370865,222.042755 
	C247.868149,221.968353 291.365631,222.003662 334.863068,222.027267 
	C342.026367,222.031143 342.962555,222.993698 342.968750,230.061707 
	C342.982483,245.727463 342.986542,261.393219 343.007874,277.526947 
	C343.055847,325.381958 343.090454,372.769012 343.202698,420.630585 
	C335.810730,421.436218 328.341125,421.767365 320.398438,422.163757 
	C319.735046,422.158813 319.544678,422.088654 319.429413,421.744324 
	C320.223358,420.293488 321.569061,419.117493 321.570251,417.940155 
	C321.609222,378.882172 321.549774,339.823944 321.433594,300.765961 
	C321.389130,285.811981 321.171875,270.858521 321.113007,255.453217 
	C321.192657,250.706863 321.192657,246.412109 321.192657,241.699463 
	C279.350342,241.699463 237.987457,241.699463 196.381775,241.699463 
	C196.381775,246.828049 196.381775,251.437363 196.276367,256.501526 
	C196.149017,291.049530 196.088242,325.142700 196.119537,359.235809 
	C196.138596,380.018555 196.299423,400.801178 196.396576,421.583862 
	C196.159836,421.657135 195.923096,421.730377 195.332718,421.919220 
	C189.334610,421.993317 183.690140,421.951813 177.591705,421.893860 
	C177.082809,393.650421 177.129929,365.422791 176.933411,337.196808 
	C176.821426,321.111206 176.311722,305.028351 175.959000,288.476929 
z"/>
<path fill="#F1B52A" opacity="1.000000" stroke="none" 
	d="
M210.497894,210.033813 
	C219.185089,204.891907 228.310699,199.794312 237.485535,194.786911 
	C243.318787,191.603256 249.132324,188.352966 255.155106,185.565613 
	C256.968842,184.726227 259.839478,184.560898 261.572266,185.414200 
	C273.933838,191.501663 286.137573,197.910812 298.364380,204.269852 
	C301.455933,205.877701 304.449219,207.674484 307.734741,209.610489 
	C287.915436,209.935303 267.849182,210.057251 247.782730,210.124252 
	C235.507690,210.165237 223.232376,210.121841 210.497894,210.033813 
z"/>
<path fill="#ECB42E" opacity="1.000000" stroke="none"
	d="
M321.033325,255.904831 
	C321.171875,270.858521 321.389130,285.811981 321.433594,300.765961 
	C321.549774,339.823944 321.609222,378.882172 321.570251,417.940155 
	C321.569061,419.117493 320.223358,420.293488 319.145935,421.633728 
	C302.832733,421.786316 286.878082,421.775299 270.460205,421.834717 
	C267.622009,421.834198 265.247040,421.763306 262.437836,421.800842 
	C240.429276,421.842957 218.854996,421.776642 196.838638,421.647095 
	C196.299423,400.801178 196.138596,380.018555 196.119537,359.235809 
	C196.088242,325.142700 196.149017,291.049530 196.694275,256.502563 
	C203.006638,256.367706 208.792160,256.794647 214.585449,256.983063 
	C226.523819,257.371307 238.473068,258.049652 250.405701,257.856995 
	C273.952606,257.476807 297.491272,256.585052 321.033325,255.904831 
M293.861328,265.024933 
	C298.722382,265.024933 303.583466,265.024933 308.444519,265.024933 
	C308.417114,264.457947 308.389709,263.890961 308.362335,263.323975 
	C303.186310,263.323975 298.010315,263.323975 291.921875,263.281555 
	C279.310486,263.402313 266.699097,263.523071 253.177414,263.372070 
	C238.531250,263.372070 223.885071,263.372070 209.238907,263.372070 
	C209.231827,263.870575 209.224762,264.369110 209.217682,264.867615 
	C224.156464,264.867615 239.095261,264.867615 254.963120,264.953400 
	C267.616760,264.931183 280.270416,264.908997 293.861328,265.024933 
M234.898453,412.947906 
	C250.334549,412.814514 265.770660,412.681152 282.100037,412.683136 
	C290.957153,412.683136 299.814240,412.683136 308.671356,412.683136 
	C308.666138,412.167480 308.660950,411.651855 308.655731,411.136200 
	C299.464691,411.136200 290.273621,411.136200 280.138855,411.044464 
	C267.026825,411.078674 253.914780,411.112885 239.903900,411.107117 
	C229.905991,411.107117 219.908066,411.107117 209.910156,411.107117 
	C209.911179,411.688904 209.912186,412.270691 209.913208,412.852478 
	C217.928970,412.852478 225.944733,412.852478 234.898453,412.947906 
M308.512817,293.857178 
	C308.302246,293.373474 308.091644,292.889771 306.973145,292.243500 
	C276.673767,292.251770 246.374390,292.260071 215.206299,292.065094 
	C212.807251,292.333862 210.408218,292.602631 208.009171,292.871399 
	C208.075195,293.533386 208.141220,294.195404 208.207245,294.857391 
	C210.819412,294.857391 213.431564,294.857391 216.971802,294.944916 
	C244.700165,294.926575 272.428589,294.930817 300.156799,294.853027 
	C302.778931,294.845673 305.399628,294.323029 308.512817,293.857178 
M266.500458,366.305573 
	C247.249710,366.506775 227.954086,365.249420 207.481644,367.370422 
	C213.195618,370.489014 305.320618,370.639526 309.307831,367.561737 
	C295.426025,365.981873 281.447845,366.472717 266.500458,366.305573 
M306.969574,354.021698 
	C307.285522,353.379303 307.601440,352.736877 307.917358,352.094482 
	C306.620178,351.841736 305.322968,351.368103 304.025848,351.368561 
	C274.045013,351.378754 244.064102,351.419403 214.083557,351.540894 
	C212.124298,351.548828 210.167862,352.249207 208.210098,352.627502 
	C208.235474,353.166504 208.260849,353.705475 208.286224,354.244476 
	C210.454407,354.499634 212.622681,354.976166 214.790741,354.975159 
	C233.278885,354.966614 251.767471,354.931580 270.254913,354.780457 
	C282.236725,354.682526 294.216797,354.377045 306.969574,354.021698 
M269.500000,324.874908 
	C282.484344,324.910797 295.469666,325.024811 308.451691,324.868805 
	C309.838043,324.852142 311.205475,323.259277 312.581665,322.397614 
	C308.898926,321.558502 305.997375,322.049988 303.096649,322.045197 
	C273.791077,321.996674 244.485641,321.850647 215.180069,321.794800 
	C213.113617,321.790863 211.046219,322.283722 208.979263,322.545593 
	C209.030106,323.321045 209.080963,324.096497 209.131805,324.871948 
	C228.921204,324.871948 248.710602,324.871948 269.500000,324.874908 
M209.619781,383.389832 
	C212.246902,383.662018 214.872910,384.158569 217.501328,384.171875 
	C246.132034,384.316559 274.763123,384.405670 303.394135,384.425873 
	C305.131866,384.427094 306.870117,383.717377 308.608124,383.338470 
	C308.578644,382.824036 308.549164,382.309570 308.519684,381.795135 
	C307.005402,381.555054 305.491486,381.108490 303.976746,381.105469 
	C275.337921,381.048492 246.698822,380.998474 218.060303,381.097961 
	C215.164658,381.108002 212.272369,382.086182 209.619781,383.389832 
M300.375153,339.788208 
	C303.363861,339.525940 306.352600,339.263672 309.341309,339.001404 
	C309.282928,338.394653 309.224518,337.787933 309.166107,337.181213 
	C276.038483,337.181213 242.910828,337.181213 209.783173,337.181213 
	C209.768600,337.957031 209.754013,338.732819 209.739441,339.508636 
	C239.615494,340.161804 269.520294,339.595825 300.375153,339.788208 
M305.034210,399.147461 
	C306.261047,398.867126 307.487885,398.586792 308.714722,398.306458 
	C308.670685,397.803711 308.626648,397.300934 308.582611,396.798187 
	C306.713104,396.582092 304.844116,396.182343 302.974091,396.177399 
	C273.340179,396.098999 243.706116,396.053925 214.072159,396.071777 
	C212.132248,396.072968 210.192673,396.645294 208.252945,396.951935 
	C208.356079,397.686493 208.459229,398.421021 208.562363,399.155579 
	C240.419830,399.155579 272.277283,399.155579 305.034210,399.147461 
M268.500000,279.994385 
	C275.322235,280.014038 282.151367,280.232758 288.964722,279.996277 
	C295.525238,279.768646 302.243683,281.086853 308.707123,278.428772 
	C307.579132,277.477081 306.415985,276.995789 305.253601,276.997528 
	C274.470947,277.043732 243.688293,277.123322 212.906036,277.275604 
	C211.353638,277.283264 209.804733,277.992371 208.254196,278.374878 
	C208.338333,278.915497 208.422470,279.456116 208.506607,279.996735 
	C228.171066,279.996735 247.835541,279.996735 268.500000,279.994385 
M215.694229,310.344177 
	C246.733322,310.182831 277.772400,310.021454 308.811493,309.860107 
	C308.856049,309.216064 308.900604,308.572021 308.945160,307.927979 
	C307.614288,307.623199 306.283783,307.054504 304.952454,307.052460 
	C274.687958,307.006042 244.423248,306.998566 214.158890,307.088196 
	C212.512665,307.093048 210.869125,308.005707 209.224319,308.495789 
	C209.329468,309.013214 209.434601,309.530670 209.539734,310.048096 
	C211.280441,310.149445 213.021164,310.250793 215.694229,310.344177 
z"/>
<path fill="#1C515B" opacity="1.000000" stroke="none" 
	d="
M138.125793,126.797287 
	C138.610458,128.092117 138.735718,129.284561 139.397842,129.879211 
	C140.355240,130.739014 141.701553,131.165771 142.881927,131.777283 
	C142.931503,130.465637 143.347290,129.033081 142.961655,127.865143 
	C141.826981,124.428673 140.374390,121.097176 139.016174,117.648201 
	C146.320129,116.169228 152.677216,119.740448 154.644485,126.068581 
	C156.541824,132.171783 153.359955,139.074280 147.368362,141.852814 
	C141.461121,144.592224 134.507996,142.417770 130.654800,136.979568 
	C127.297134,132.240723 128.821808,122.267853 135.370178,118.720062 
	C136.263702,121.332619 137.134995,123.880196 138.125793,126.797287 
z"/>
<path fill="#1E535C" opacity="1.000000" stroke="none" 
	d="
M87.321808,132.330627 
	C91.037849,132.509094 94.345512,132.665482 97.687126,132.823471 
	C96.498352,139.622177 89.454071,144.261200 82.902985,142.821091 
	C75.349747,141.160690 70.738785,133.230637 73.078842,125.925308 
	C75.502716,118.358376 82.657738,115.326149 91.734566,118.817787 
	C89.765228,121.592247 87.942596,124.183113 86.094872,126.755951 
	C84.566048,128.884720 82.749451,131.030151 87.321808,132.330627 
z"/>
<path fill="#255760" opacity="1.000000" stroke="none" 
	d="
M110.115631,109.369583 
	C115.827766,109.373352 121.059067,109.373352 125.969345,109.373352 
	C120.329483,114.883736 114.727783,120.356842 108.695229,126.250900 
	C106.600975,121.496208 104.139343,115.907425 101.258026,109.365814 
	C104.473106,109.365814 107.053947,109.365814 110.115631,109.369583 
z"/>
<path fill="#20535D" opacity="1.000000" stroke="none" 
	d="
M413.750641,126.129959 
	C415.355621,123.477776 416.829285,121.198975 418.810211,118.135727 
	C420.083832,122.433632 420.724518,125.688118 422.073517,128.616257 
	C422.621826,129.806412 424.710449,130.286957 426.098206,131.090363 
	C425.955505,129.651306 426.055878,128.133484 425.620331,126.789322 
	C424.659424,123.823776 423.428406,120.945740 422.304718,118.024551 
	C428.061707,116.009163 433.460205,117.729538 436.543365,122.257339 
	C440.036774,127.387627 439.685944,133.925400 435.674255,138.452545 
	C431.915344,142.694489 425.222137,144.048950 420.127014,141.598709 
	C414.450592,138.868896 412.252869,133.771042 413.750641,126.129959 
z"/>
<path fill="#1E535C" opacity="1.000000" stroke="none" 
	d="
M379.372833,132.312607 
	C381.578766,132.295166 383.352173,132.295166 385.161926,132.295166 
	C384.536255,137.919586 380.443970,141.967834 374.814941,142.852127 
	C369.126587,143.745758 363.556580,140.642090 361.076294,135.196838 
	C358.656158,129.883652 360.007141,123.558212 364.375977,119.747543 
	C368.699677,115.976242 374.233307,115.734459 379.942078,119.455772 
	C378.016388,121.918320 376.039001,124.283821 374.258728,126.789375 
	C373.306610,128.129349 372.694305,129.710739 371.928680,131.183197 
	C373.435760,131.584122 374.928436,132.059387 376.455841,132.355484 
	C377.252411,132.509872 378.110168,132.348694 379.372833,132.312607 
z"/>
<path fill="#1E535C" opacity="1.000000" stroke="none" 
	d="
M393.030762,115.041229 
	C392.318268,113.338051 391.743317,111.999603 390.990356,110.246780 
	C398.180817,110.246780 404.892731,110.246780 412.882416,110.246780 
	C407.745941,116.617493 403.163910,122.300537 397.925507,128.797668 
	C396.183990,123.895210 394.676147,119.650581 393.030762,115.041229 
z"/>
<path fill="#37656B" opacity="1.000000" stroke="none" 
	d="
M391.899841,128.112946 
	C389.473541,123.253014 387.444519,118.419518 385.415466,113.586021 
	C386.206238,113.238922 386.996979,112.891830 387.787720,112.544731 
	C389.749634,117.594131 391.711517,122.643532 393.673431,127.692917 
	C393.214661,127.841736 392.755890,127.990547 391.899841,128.112946 
z"/>
<path fill="#37656B" opacity="1.000000" stroke="none" 
	d="
M379.428894,127.261383 
	C380.619324,125.063911 381.911804,123.236328 383.939209,120.369583 
	C385.002167,123.342735 385.660675,125.184624 386.535400,127.631279 
	C383.704987,127.631279 381.617950,127.631279 379.428894,127.261383 
z"/>
<path fill="#194E57" opacity="1.000000" stroke="none" 
	d="
M411.372620,118.486221 
	C412.044952,117.658493 412.717316,116.830757 413.389679,116.003014 
	C413.618500,116.131630 413.847321,116.260246 414.076141,116.388863 
	C413.678772,117.241333 413.281372,118.093803 412.374084,118.929306 
	C411.700317,118.770302 411.536438,118.628258 411.372620,118.486221 
z"/>
<path fill="#194E57" opacity="1.000000" stroke="none" 
	d="
M412.106812,119.129013 
	C411.837402,119.654488 411.325409,119.963280 410.813416,120.272079 
	C410.808258,119.898125 410.803101,119.524155 411.085266,118.818199 
	C411.536438,118.628258 411.700317,118.770302 412.106812,119.129013 
z"/>
<path fill="#D68724" opacity="1.000000" stroke="none" 
	d="
M321.112976,255.453217 
	C297.491272,256.585052 273.952606,257.476807 250.405701,257.856995 
	C238.473068,258.049652 226.523819,257.371307 214.585449,256.983063 
	C208.792160,256.794647 203.006638,256.367706 196.799683,256.047729 
	C196.381775,251.437363 196.381775,246.828049 196.381775,241.699463 
	C237.987457,241.699463 279.350342,241.699463 321.192657,241.699463 
	C321.192657,246.412109 321.192657,250.706863 321.112976,255.453217 
z"/>
<path fill="#5F9350" opacity="1.000000" stroke="none" 
	d="
M267.000488,366.303406 
	C281.447845,366.472717 295.426025,365.981873 309.307831,367.561737 
	C305.320618,370.639526 213.195618,370.489014 207.481644,367.370422 
	C227.954086,365.249420 247.249710,366.506775 267.000488,366.303406 
z"/>
<path fill="#5A904F" opacity="1.000000" stroke="none" 
	d="
M306.583618,354.093140 
	C294.216797,354.377045 282.236725,354.682526 270.254913,354.780457 
	C251.767471,354.931580 233.278885,354.966614 214.790741,354.975159 
	C212.622681,354.976166 210.454407,354.499634 208.286224,354.244476 
	C208.260849,353.705475 208.235474,353.166504 208.210098,352.627502 
	C210.167862,352.249207 212.124298,351.548828 214.083557,351.540894 
	C244.064102,351.419403 274.045013,351.378754 304.025848,351.368561 
	C305.322968,351.368103 306.620178,351.841736 307.917358,352.094482 
	C307.601440,352.736877 307.285522,353.379303 306.583618,354.093140 
z"/>
<path fill="#4F8D54" opacity="1.000000" stroke="none" 
	d="
M269.000000,324.873413 
	C248.710602,324.871948 228.921204,324.871948 209.131805,324.871948 
	C209.080963,324.096497 209.030106,323.321045 208.979263,322.545593 
	C211.046219,322.283722 213.113617,321.790863 215.180069,321.794800 
	C244.485641,321.850647 273.791077,321.996674 303.096649,322.045197 
	C305.997375,322.049988 308.898926,321.558502 312.581665,322.397614 
	C311.205475,323.259277 309.838043,324.852142 308.451691,324.868805 
	C295.469666,325.024811 282.484344,324.910797 269.000000,324.873413 
z"/>
<path fill="#579152" opacity="1.000000" stroke="none" 
	d="
M209.499146,383.002441 
	C212.272369,382.086182 215.164658,381.108002 218.060303,381.097961 
	C246.698822,380.998474 275.337921,381.048492 303.976746,381.105469 
	C305.491486,381.108490 307.005402,381.555054 308.519684,381.795135 
	C308.549164,382.309570 308.578644,382.824036 308.608124,383.338470 
	C306.870117,383.717377 305.131866,384.427094 303.394135,384.425873 
	C274.763123,384.405670 246.132034,384.316559 217.501328,384.171875 
	C214.872910,384.158569 212.246902,383.662018 209.499146,383.002441 
z"/>
<path fill="#558E4F" opacity="1.000000" stroke="none" 
	d="
M299.891174,339.788208 
	C269.520294,339.595825 239.615494,340.161804 209.739441,339.508636 
	C209.754013,338.732819 209.768600,337.957031 209.783173,337.181213 
	C242.910828,337.181213 276.038483,337.181213 309.166107,337.181213 
	C309.224518,337.787933 309.282928,338.394653 309.341309,339.001404 
	C306.352600,339.263672 303.363861,339.525940 299.891174,339.788208 
z"/>
<path fill="#538952" opacity="1.000000" stroke="none" 
	d="
M304.584473,399.151520 
	C272.277283,399.155579 240.419830,399.155579 208.562363,399.155579 
	C208.459229,398.421021 208.356079,397.686493 208.252945,396.951935 
	C210.192673,396.645294 212.132248,396.072968 214.072159,396.071777 
	C243.706116,396.053925 273.340179,396.098999 302.974091,396.177399 
	C304.844116,396.182343 306.713104,396.582092 308.582611,396.798187 
	C308.626648,397.300934 308.670685,397.803711 308.714722,398.306458 
	C307.487885,398.586792 306.261047,398.867126 304.584473,399.151520 
z"/>
<path fill="#4E894F" opacity="1.000000" stroke="none" 
	d="
M268.000000,279.995544 
	C247.835541,279.996735 228.171066,279.996735 208.506607,279.996735 
	C208.422470,279.456116 208.338333,278.915497 208.254196,278.374878 
	C209.804733,277.992371 211.353638,277.283264 212.906036,277.275604 
	C243.688293,277.123322 274.470947,277.043732 305.253601,276.997528 
	C306.415985,276.995789 307.579132,277.477081 308.707123,278.428772 
	C302.243683,281.086853 295.525238,279.768646 288.964722,279.996277 
	C282.151367,280.232758 275.322235,280.014038 268.000000,279.995544 
z"/>
<path fill="#4B894F" opacity="1.000000" stroke="none" 
	d="
M215.228058,310.348145 
	C213.021164,310.250793 211.280441,310.149445 209.539734,310.048096 
	C209.434601,309.530670 209.329468,309.013214 209.224319,308.495789 
	C210.869125,308.005707 212.512665,307.093048 214.158890,307.088196 
	C244.423248,306.998566 274.687958,307.006042 304.952454,307.052460 
	C306.283783,307.054504 307.614288,307.623199 308.945160,307.927979 
	C308.900604,308.572021 308.856049,309.216064 308.811493,309.860107 
	C277.772400,310.021454 246.733322,310.182831 215.228058,310.348145 
z"/>
<path fill="#388456" opacity="1.000000" stroke="none" 
	d="
M216.075012,292.268341 
	C246.374390,292.260071 276.673767,292.251770 307.447845,292.597198 
	C307.955383,293.313782 307.988190,293.676697 308.020996,294.039581 
	C305.399628,294.323029 302.778931,294.845673 300.156799,294.853027 
	C272.428589,294.930817 244.700165,294.926575 216.498413,294.577454 
	C216.041672,293.562775 216.058334,292.915558 216.075012,292.268341 
z"/>
<path fill="#70904B" opacity="1.000000" stroke="none" 
	d="
M254.034042,264.867615 
	C239.095261,264.867615 224.156464,264.867615 209.217682,264.867615 
	C209.224762,264.369110 209.231827,263.870575 209.238907,263.372070 
	C223.885071,263.372070 238.531250,263.372070 253.627197,263.710571 
	C254.047333,264.321106 254.033005,264.593964 254.034042,264.867615 
z"/>
<path fill="#B5AC42" opacity="1.000000" stroke="none" 
	d="
M240.802750,411.147095 
	C253.914780,411.112885 267.026825,411.078674 280.610077,411.328003 
	C281.104095,411.926178 281.145905,412.238251 281.206757,412.547729 
	C265.770660,412.681152 250.334549,412.814514 234.739502,412.705780 
	C236.654617,412.024811 238.728683,411.585968 240.802750,411.147095 
z"/>
<path fill="#538952" opacity="1.000000" stroke="none" 
	d="
M254.498581,264.910522 
	C254.033005,264.593964 254.047333,264.321106 254.082367,263.846436 
	C266.699097,263.523071 279.310486,263.402313 292.404266,263.562378 
	C292.899139,264.191071 292.911591,264.538940 292.924072,264.886780 
	C280.270416,264.908997 267.616760,264.931183 254.498581,264.910522 
z"/>
<path fill="#8E994A" opacity="1.000000" stroke="none" 
	d="
M240.353333,411.127136 
	C238.728683,411.585968 236.654617,412.024811 234.270523,412.658081 
	C225.944733,412.852478 217.928970,412.852478 209.913208,412.852478 
	C209.912186,412.270691 209.911179,411.688904 209.910156,411.107117 
	C219.908066,411.107117 229.905991,411.107117 240.353333,411.127136 
z"/>
<path fill="#8E994A" opacity="1.000000" stroke="none" 
	d="
M281.653381,412.615417 
	C281.145905,412.238251 281.104095,411.926178 281.081940,411.373901 
	C290.273621,411.136200 299.464691,411.136200 308.655731,411.136200 
	C308.660950,411.651855 308.666138,412.167480 308.671356,412.683136 
	C299.814240,412.683136 290.957153,412.683136 281.653381,412.615417 
z"/>
<path fill="#8E994A" opacity="1.000000" stroke="none" 
	d="
M293.392700,264.955872 
	C292.911591,264.538940 292.899139,264.191071 292.860474,263.583618 
	C298.010315,263.323975 303.186310,263.323975 308.362335,263.323975 
	C308.389709,263.890961 308.417114,264.457947 308.444519,265.024933 
	C303.583466,265.024933 298.722382,265.024933 293.392700,264.955872 
z"/>
<path fill="#618F4C" opacity="1.000000" stroke="none" 
	d="
M215.640656,292.166718 
	C216.058334,292.915558 216.041672,293.562775 216.034363,294.533691 
	C213.431564,294.857391 210.819412,294.857391 208.207245,294.857391 
	C208.141220,294.195404 208.075195,293.533386 208.009171,292.871399 
	C210.408218,292.602631 212.807251,292.333862 215.640656,292.166718 
z"/>
<path fill="#618F4C" opacity="1.000000" stroke="none" 
	d="
M308.266907,293.948364 
	C307.988190,293.676697 307.955383,293.313782 307.901794,292.678467 
	C308.091644,292.889771 308.302246,293.373474 308.266907,293.948364 
z"/>
</svg>